# xmcd CD database file
#
# Track frame offsets:
#	150
#	106075
#	147467
#	196780
#
# Disc length: 3848 seconds
#
# Revision: 0
# Processed by: cddbd v1.5.1PL0 Copyright (c) Steve Scherf et al.
# Submitted via: CDex 1.51
#
DISCID=2f0f0604
DTITLE=はてな - 宇宙人がくれた２１世紀の叡智と音楽
DYEAR=1900
DGENRE=New Age
TTITLE0=プレアデス１
TTITLE1=プレアデス２
TTITLE2=プレアデス３
TTITLE3=プレアデス４
EXTD=
EXTT0=
EXTT1=
EXTT2=
EXTT3=
PLAYORDER=
